<?xml version="1.0" encoding="utf-8"?>
<!-- Generator: Adobe Illustrator 16.0.0, SVG Export Plug-In . SVG Version: 6.00 Build 0)  -->
<!DOCTYPE svg PUBLIC "-//W3C//DTD SVG 1.1//EN" "http://www.w3.org/Graphics/SVG/1.1/DTD/svg11.dtd">
<svg version="1.1" id="Layer_0_xA0_Image_1_" xmlns="http://www.w3.org/2000/svg" xmlns:xlink="http://www.w3.org/1999/xlink"
	 x="0px" y="0px" width="50.527px" height="50.563px" viewBox="64.732 0.921 50.527 50.563"
	 enable-background="new 64.732 0.921 50.527 50.563" xml:space="preserve">
<path fill="#006F9D" d="M115.26,26.199c0,0.831-0.668,1.481-1.48,1.481c-0.83,0-1.48-0.668-1.48-1.481
	c0-12.332-9.984-22.317-22.317-22.317c-0.831,0-1.48-0.668-1.48-1.48s0.668-1.48,1.48-1.48
	C103.921,0.921,115.26,12.242,115.26,26.199z M106.322,26.199c0,0.831-0.668,1.481-1.48,1.481c-0.83,0-1.48-0.668-1.48-1.481
	c0-7.403-5.994-13.397-13.397-13.397c-0.831,0-1.48-0.668-1.48-1.48s0.668-1.48,1.48-1.48
	C98.992,9.84,106.322,17.171,106.322,26.199z M107.045,44.94l-5.002,5.001c-4.459,4.46-18.76-1.408-26.56-9.208
	c-7.8-7.8-13.668-22.1-9.208-26.56l5.001-5.001c1.499-1.499,3.864-1.373,5.2,0.271l6.626,8.107c1.264,1.553,1.156,3.9-0.252,5.309
	l-3.16,3.16c-0.397,0.397-0.506,1.228-0.235,1.697c0.09,0.163,0.145,0.289,0.253,0.47c0.18,0.325,0.415,0.687,0.686,1.102
	c0.794,1.174,1.77,2.384,2.979,3.575c1.192,1.191,2.419,2.185,3.593,2.979c0.397,0.271,0.776,0.506,1.101,0.687
	c0.181,0.108,0.307,0.163,0.361,0.198c0.578,0.325,1.408,0.217,1.788-0.18l3.16-3.16c1.408-1.408,3.755-1.517,5.308-0.253
	l8.106,6.626C108.416,41.094,108.543,43.441,107.045,44.94z M77.578,23.906l3.16-3.16c0.325-0.325,0.361-0.957,0.054-1.318
	l-6.626-8.107c-0.234-0.271-0.542-0.289-0.794-0.054l-5.001,5.02c-2.799,2.799,2.456,15.601,9.208,22.353
	c6.753,6.753,19.554,12.008,22.353,9.209l5.001-5.002c0.253-0.252,0.234-0.56-0.054-0.795l-8.106-6.626
	c-0.361-0.307-0.994-0.271-1.318,0.054l-3.143,3.16c-1.336,1.336-3.61,1.643-5.253,0.723c-0.379-0.199-0.993-0.542-1.77-1.065
	c-1.318-0.885-2.69-2.005-4.026-3.341c-1.336-1.336-2.438-2.708-3.34-4.025c-0.523-0.777-0.867-1.373-1.065-1.752
	C75.935,27.535,76.242,25.242,77.578,23.906z"/>
</svg>
