<?xml version="1.0" encoding="utf-8"?>
<!-- Generator: Adobe Illustrator 16.0.0, SVG Export Plug-In . SVG Version: 6.00 Build 0)  -->
<!DOCTYPE svg PUBLIC "-//W3C//DTD SVG 1.1//EN" "http://www.w3.org/Graphics/SVG/1.1/DTD/svg11.dtd">
<svg version="1.1" id="Layer_1" xmlns="http://www.w3.org/2000/svg" xmlns:xlink="http://www.w3.org/1999/xlink" x="0px" y="0px"
	 width="34px" height="24px" viewBox="0 0 34 24" enable-background="new 0 0 34 24" xml:space="preserve">
<g>
	<g>
		<path fill="#525352" d="M33.7,5.2c0,0-0.3-2.4-1.4-3.4c-1.3-1.4-2.7-1.4-3.4-1.4C24.1,0,17,0,17,0h0c0,0-7.1,0-11.9,0.3
			C4.4,0.4,3,0.4,1.7,1.8c-1,1-1.4,3.4-1.4,3.4S0,7.9,0,10.7v2.6c0,2.8,0.3,5.5,0.3,5.5s0.3,2.4,1.4,3.4c1.3,1.4,3,1.3,3.7,1.5
			C8.2,23.9,17,24,17,24s7.1,0,11.9-0.4c0.7-0.1,2.1-0.1,3.4-1.4c1-1,1.4-3.4,1.4-3.4s0.3-2.8,0.3-5.5v-2.6
			C34,7.9,33.7,5.2,33.7,5.2z M13.5,16.4l0-9.6l9.2,4.8L13.5,16.4z"/>
	</g>
</g>
</svg>
