<?xml version="1.0" encoding="utf-8"?>
<!-- Generator: Adobe Illustrator 16.0.0, SVG Export Plug-In . SVG Version: 6.00 Build 0)  -->
<!DOCTYPE svg PUBLIC "-//W3C//DTD SVG 1.1//EN" "http://www.w3.org/Graphics/SVG/1.1/DTD/svg11.dtd">
<svg version="1.1" id="Layer_1" xmlns="http://www.w3.org/2000/svg" xmlns:xlink="http://www.w3.org/1999/xlink" x="0px" y="0px"
	 width="24.2px" height="24px" viewBox="0 0 24.2 24" enable-background="new 0 0 24.2 24" xml:space="preserve">
<path fill="#525352" d="M7,0C3.1,0,0,3.1,0,6.9v10.1C0,20.9,3.1,24,7,24h10.2c3.9,0,7-3.1,7-6.9V6.9c0-3.8-3.1-6.9-7-6.9H7z M7,2.5
	h10.2c2.5,0,4.4,1.9,4.4,4.4v10.1c0,2.5-2,4.4-4.4,4.4H7c-2.5,0-4.5-1.9-4.5-4.4V6.9C2.5,4.5,4.5,2.5,7,2.5z M18.4,4.4
	c-0.7,0-1.3,0.6-1.3,1.3c0,0.7,0.6,1.3,1.3,1.3c0.7,0,1.3-0.6,1.3-1.3C19.7,5,19.1,4.4,18.4,4.4z M12.1,5.4c-3.7,0-6.7,3-6.7,6.6
	c0,3.6,3,6.6,6.7,6.6s6.7-3,6.7-6.6C18.8,8.4,15.8,5.4,12.1,5.4z M12.1,7.9c2.3,0,4.1,1.8,4.1,4.1c0,2.3-1.8,4.1-4.1,4.1
	c-2.3,0-4.1-1.8-4.1-4.1C7.9,9.7,9.8,7.9,12.1,7.9z"/>
</svg>
