<?xml version="1.0" encoding="utf-8"?>
<!-- Generator: Adobe Illustrator 16.0.0, SVG Export Plug-In . SVG Version: 6.00 Build 0)  -->
<!DOCTYPE svg PUBLIC "-//W3C//DTD SVG 1.1//EN" "http://www.w3.org/Graphics/SVG/1.1/DTD/svg11.dtd">
<svg version="1.1" id="Layer_1" xmlns="http://www.w3.org/2000/svg" xmlns:xlink="http://www.w3.org/1999/xlink" x="0px" y="0px"
	 width="120px" height="62.4px" viewBox="0 0 120 62.4" enable-background="new 0 0 120 62.4" xml:space="preserve">
<g>
	<path fill="#525352" d="M55.4,38.2c2.5,2.5,3.9,5.7,3.9,9.4c0,3.7-1.4,6.9-3.9,9.4s-5.7,3.9-9.5,3.9c-3.7,0-7-1.4-9.5-3.9
		s-3.9-5.7-3.9-9.4c0-3.7,1.5-6.9,3.9-9.4c2.5-2.5,5.7-3.9,9.5-3.9C49.6,34.3,52.9,35.8,55.4,38.2 M45.9,38.9c-2.4,0-4.6,1-6.2,2.6
		c-1.6,1.6-2.6,3.7-2.6,6.1c0,2.5,1,4.6,2.6,6.2c1.6,1.6,3.8,2.5,6.2,2.5c2.5,0,4.6-0.9,6.2-2.5c1.6-1.6,2.6-3.7,2.6-6.2
		c0-2.4-1-4.5-2.6-6.1C50.5,39.9,48.4,38.9,45.9,38.9"/>
	<path fill="#525352" d="M49.8,44.5c0.9,0.9,1.5,2.1,1.5,3.5c0,1.4-0.5,2.6-1.5,3.5c-0.9,0.9-2.1,1.4-3.5,1.4
		c-1.4,0-2.6-0.5-3.5-1.4c-0.9-0.9-1.5-2.1-1.5-3.5c0-1.4,0.5-2.6,1.5-3.5c0.9-0.9,2.1-1.5,3.5-1.5C47.6,43,48.8,43.5,49.8,44.5"/>
	<path fill="#525352" d="M83.6,38.2c2.5,2.5,3.9,5.7,3.9,9.4c0,3.7-1.5,6.9-3.9,9.4c-2.5,2.5-5.7,3.9-9.5,3.9c-3.7,0-7-1.4-9.5-3.9
		s-3.9-5.7-3.9-9.4c0-3.7,1.4-6.9,3.9-9.4s5.7-3.9,9.5-3.9C77.8,34.3,81.1,35.8,83.6,38.2 M74.1,38.9c-2.4,0-4.6,1-6.2,2.6
		c-1.6,1.6-2.6,3.7-2.6,6.1c0,2.5,1,4.6,2.6,6.2c1.6,1.6,3.8,2.5,6.2,2.5c2.5,0,4.6-0.9,6.2-2.5c1.6-1.6,2.6-3.7,2.6-6.2
		c0-2.4-1-4.5-2.6-6.1C78.7,39.9,76.6,38.9,74.1,38.9"/>
	<path fill="#525352" d="M77.6,44.5c0.9,0.9,1.5,2.1,1.5,3.5c0,1.4-0.5,2.6-1.5,3.5c-0.9,0.9-2.1,1.4-3.5,1.4
		c-1.4,0-2.6-0.5-3.5-1.4c-0.9-0.9-1.5-2.1-1.5-3.5c0-1.4,0.5-2.6,1.5-3.5c0.9-0.9,2.1-1.5,3.5-1.5C75.5,43,76.7,43.5,77.6,44.5"/>
	<path fill="#525352" d="M115.5,15.1l4.5-4.4C113.2,3.9,103.2,0,92.7,0C78.2,0,65.6,7.4,60,18.1C54.4,7.4,41.8,0,27.2,0
		C16.8,0,6.8,3.9,0,10.7l4.5,4.4c5.6-5.6,13.9-8.8,22.7-8.8c2,0,3.9,0.2,5.8,0.5c-0.4,0-0.9,0-1.3,0c-9.1,0-17.8,3-23.7,8.1l4.2,4.7
		c4.8-4.2,12-6.6,19.5-6.6c13.9,0,25.2,7.9,25.2,17.6l0,0v1.6v1.6h6.4v-3.1l0,0c0-9.7,11.3-17.6,25.2-17.6c7.6,0,14.7,2.4,19.5,6.6
		l4.2-4.7c-6-5.2-14.6-8.1-23.7-8.1c-0.4,0-0.9,0-1.4,0c1.9-0.3,3.8-0.5,5.7-0.5C101.6,6.3,109.9,9.5,115.5,15.1"/>
	
		<polygon fill="#525352" stroke="#525352" stroke-width="0.25" stroke-linecap="round" stroke-linejoin="round" stroke-miterlimit="10" points="
		63.2,58.1 60,62.4 56.7,58.1 60,55.9 	"/>
</g>
</svg>
