<?xml version="1.0" encoding="utf-8"?>
<!-- Generator: Adobe Illustrator 16.0.0, SVG Export Plug-In . SVG Version: 6.00 Build 0)  -->
<!DOCTYPE svg PUBLIC "-//W3C//DTD SVG 1.1//EN" "http://www.w3.org/Graphics/SVG/1.1/DTD/svg11.dtd">
<svg version="1.1" id="Layer_1" xmlns="http://www.w3.org/2000/svg" xmlns:xlink="http://www.w3.org/1999/xlink" x="0px" y="0px"
	 width="179px" height="52px" viewBox="0 0 179 52" enable-background="new 0 0 179 52" xml:space="preserve">
<g>
	<g>
		<path fill="#FFFFFF" d="M20.8,41.8l-4.3-8.3L14.7,30l-1.8,3.5l-4.3,8.3L4.2,30.1H0l6.4,17.1L8,51.4l2.1-4l4.6-8.9l4.6,8.9l2.1,4
			l1.6-4.2l6.5-17.1h-4.2L20.8,41.8z M41.7,29.3c-3.2,0-6,1.2-8.1,3.3c-2.1,2.1-3.4,4.8-3.4,8c0,3.2,1.2,5.9,3.4,8
			c2.1,2.1,4.9,3.3,8.1,3.3c3.2,0,6-1.2,8.1-3.3c2.1-2.1,3.4-4.8,3.4-8c0-3.2-1.2-5.9-3.4-8C47.7,30.6,44.9,29.3,41.7,29.3z
			 M47.1,45.9c-1.4,1.4-3.2,2.2-5.3,2.2c-2,0-3.9-0.8-5.3-2.2c-1.4-1.4-2.2-3.2-2.2-5.3c0-2,0.8-3.8,2.2-5.2
			c1.4-1.4,3.2-2.2,5.3-2.2c2.1,0,3.9,0.8,5.3,2.2c1.4,1.3,2.2,3.2,2.2,5.2C49.3,42.8,48.4,44.5,47.1,45.9z M75.2,41.8l-4.3-8.3
			L69.1,30l-1.8,3.5L63,41.8l-4.4-11.8h-4.2l6.4,17.1l1.6,4.2l2.1-4l4.6-8.9l4.6,8.9l2.1,4l1.6-4.2l6.5-17.1h-4.2L75.2,41.8z
			 M97.2,40.2c1-1.1,1.5-2.5,1.5-4c0-1.7-0.7-3.2-1.8-4.3c-1.2-1.1-2.7-1.8-4.4-1.8h-2.3v0h-3.9v21.4h3.9v0h2.4
			c1.8,0,3.5-0.7,4.7-1.9c1.2-1.2,1.9-2.8,1.9-4.6s-0.7-3.4-1.9-4.6L97.2,40.2z M90.2,34h2.3c0.6,0,1.2,0.2,1.6,0.7
			c0.4,0.4,0.7,1,0.7,1.6c0,0.7-0.2,1.2-0.7,1.6c-0.4,0.4-0.9,0.6-1.6,0.6h-2.3V34z M94.5,46.8c-0.5,0.5-1.1,0.8-1.9,0.8h-2.4v-5.2
			h2.4c0.8,0,1.4,0.3,1.9,0.8c0.5,0.5,0.8,1.1,0.8,1.8C95.3,45.7,95,46.3,94.5,46.8z M112.3,29.3c-3.2,0-6,1.2-8.1,3.3
			c-2.1,2.1-3.4,4.8-3.4,8c0,3.2,1.2,5.9,3.4,8c2.1,2.1,4.9,3.3,8.1,3.3c3.2,0,6-1.2,8.1-3.3c2.1-2.1,3.3-4.8,3.3-8
			c0-3.2-1.2-5.9-3.3-8C118.3,30.6,115.5,29.3,112.3,29.3z M117.6,45.9c-1.4,1.4-3.2,2.2-5.3,2.2c-2,0-3.9-0.8-5.3-2.2
			c-1.4-1.4-2.2-3.2-2.2-5.3c0-2,0.8-3.8,2.2-5.2c1.4-1.4,3.2-2.2,5.3-2.2c2.1,0,3.9,0.8,5.3,2.2c1.3,1.3,2.2,3.2,2.2,5.2
			C119.8,42.8,119,44.5,117.6,45.9z M136.4,29.3c-3.2,0-6,1.2-8.1,3.3c-2.1,2.1-3.4,4.8-3.4,8c0,3.2,1.2,5.9,3.4,8
			c2.1,2.1,4.9,3.3,8.1,3.3c3.2,0,6-1.2,8.1-3.3c2.1-2.1,3.4-4.8,3.4-8c0-3.2-1.2-5.9-3.4-8C142.3,30.6,139.6,29.3,136.4,29.3z
			 M141.7,45.9c-1.4,1.4-3.2,2.2-5.3,2.2c-2,0-3.9-0.8-5.3-2.2c-1.4-1.4-2.2-3.2-2.2-5.3c0-2,0.8-3.8,2.2-5.2
			c1.4-1.4,3.2-2.2,5.3-2.2c2.1,0,3.9,0.8,5.3,2.2c1.3,1.3,2.2,3.2,2.2,5.2C143.9,42.8,143.1,44.5,141.7,45.9z M164.3,30.2h-4.8
			l-6,8.4v-8.4h-3.9v21.3h3.9v-6.1l0.8-1.1l5.6,7.2h5L156.6,41L164.3,30.2z M178.5,42.5c-0.4-1-1.1-1.8-2-2.4
			c-0.6-0.5-1.2-0.8-1.8-1.1c-0.5-0.2-1.1-0.3-1.6-0.5c-0.4-0.1-0.8-0.2-1.2-0.4c-0.3-0.1-0.6-0.3-0.9-0.4c-0.3-0.3-0.6-0.6-0.7-0.9
			c-0.2-0.3-0.2-0.6-0.2-1c0-0.5,0.2-0.9,0.6-1.3c0.3-0.3,0.8-0.6,1.3-0.6c0.6-0.1,1.2,0,1.8,0.3c0.5,0.3,0.8,0.6,1.1,1l3.5-1.9
			c-0.7-1.3-1.7-2.1-2.9-2.7c-1.2-0.6-2.6-0.8-4-0.6c-1.5,0.2-2.7,0.9-3.6,1.8c-1,1-1.6,2.3-1.7,3.7c-0.1,1,0.1,1.9,0.5,2.9
			c0.4,0.9,1,1.6,1.8,2.3c0.6,0.5,1.2,0.8,1.8,1.1c0.5,0.2,1,0.4,1.6,0.5c0.4,0.1,0.8,0.2,1.2,0.4c0.3,0.1,0.6,0.2,0.8,0.5
			c0.5,0.3,0.7,0.7,0.8,1c0.2,0.3,0.2,0.7,0.2,1.1c-0.1,0.6-0.3,1.1-0.7,1.5c-0.4,0.4-0.9,0.7-1.5,0.8c-0.7,0.1-1.4,0-2-0.3
			c-0.5-0.2-1-0.6-1.3-1.2c-0.1-0.2-0.2-0.4-0.2-0.5c0-0.1-0.1-0.3-0.2-0.6l-3.9,0.5c0.1,0.5,0.2,0.9,0.3,1.3
			c0.2,0.4,0.3,0.7,0.5,1.1c0.7,1.3,1.9,2.3,3.1,2.9c1.3,0.7,2.8,0.8,4.2,0.7c1.6-0.2,2.9-0.9,3.9-1.9c1-1.1,1.6-2.4,1.8-3.9
			C179.1,44.5,178.9,43.5,178.5,42.5z M148.5,5.7c-0.4,0-0.8,0-1.2,0c1.6-0.3,3.2-0.4,4.9-0.4c7.5,0,14.6,2.7,19.4,7.5l3.8-3.8
			C169.7,3.3,161.2,0,152.3,0c-12.4,0-23.2,6.3-28,15.4C119.5,6.3,108.8,0,96.4,0c-9,0-17.4,3.3-23.3,9.1l3.8,3.8
			c4.8-4.8,11.9-7.5,19.4-7.5c1.7,0,3.3,0.1,4.9,0.4c-0.4,0-0.8,0-1.2,0c-7.8,0-15.2,2.5-20.3,6.9l3.6,4c4.1-3.6,10.2-5.6,16.7-5.6
			c11.8,0,21.5,6.7,21.5,15v1.4l0,1.3h5.4v-2.7c0-8.3,9.7-15,21.5-15c6.5,0,12.6,2.1,16.7,5.6l3.6-4C163.7,8.3,156.3,5.7,148.5,5.7z
			"/>
	</g>
</g>
</svg>
