<?xml version="1.0" encoding="utf-8"?>
<!-- Generator: Adobe Illustrator 16.0.0, SVG Export Plug-In . SVG Version: 6.00 Build 0)  -->
<!DOCTYPE svg PUBLIC "-//W3C//DTD SVG 1.1//EN" "http://www.w3.org/Graphics/SVG/1.1/DTD/svg11.dtd">
<svg version="1.1" id="Layer_1" xmlns="http://www.w3.org/2000/svg" xmlns:xlink="http://www.w3.org/1999/xlink" x="0px" y="0px"
	 width="77px" height="79px" viewBox="0 0 77 79" enable-background="new 0 0 77 79" xml:space="preserve">
<g>
	<g>
		<path fill="#FFFFFF" d="M35.9,55.1c4.8,0,9.2-1.9,12.6-5.4c3.4-3.5,5.2-8.1,5.2-12.9c0-4.9-1.9-9.5-5.2-12.9
			c-3.4-3.5-7.8-5.4-12.6-5.4c-4.8,0-9.2,1.9-12.6,5.4c-3.4,3.5-5.2,8-5.2,12.9c0,4.9,1.9,9.5,5.2,12.9
			C26.7,53.3,31.2,55.1,35.9,55.1z M25.2,25.9c2.9-2.9,6.7-4.6,10.7-4.6s7.9,1.6,10.7,4.6c2.9,2.9,4.4,6.8,4.4,11s-1.6,8.1-4.4,11
			c-2.9,2.9-6.7,4.6-10.7,4.6s-7.9-1.6-10.7-4.6c-2.9-2.9-4.4-6.8-4.4-11C20.8,32.7,22.3,28.8,25.2,25.9z M34.8,38.2H37c0,0,0,0,0,0
			c0.5,0,1,0.2,1.4,0.6c0.4,0.4,0.6,0.9,0.6,1.4c0,0.5-0.2,1-0.6,1.4C38,42,37.5,42.3,37,42.3c0,0,0,0,0,0h-2.2
			c-0.5,0-1-0.2-1.4-0.6c-0.4-0.4-0.6-0.9-0.6-1.4h-2.7c0,1.3,0.5,2.5,1.4,3.4c0.8,0.8,1.9,1.3,3,1.4v1.4h2.7V45
			c1.1-0.1,2.2-0.5,3.1-1.4c0.9-0.9,1.3-2.1,1.3-3.3c0-1.3-0.5-2.5-1.4-3.4c-0.9-0.9-2-1.4-3.3-1.4c0,0,0,0,0,0h-2.2
			c-0.5,0-1-0.2-1.4-0.6c-0.4-0.4-0.6-0.9-0.6-1.4c0-0.5,0.2-1,0.6-1.4c0.4-0.4,0.9-0.6,1.4-0.6H37c0,0,0,0,0,0c0.5,0,1,0.2,1.4,0.6
			c0.4,0.4,0.6,0.9,0.6,1.4l2.7,0c0-1.3-0.5-2.5-1.4-3.4c-0.8-0.8-1.9-1.3-3-1.4v-1.4h-2.7v1.4c-1.1,0.1-2.2,0.5-3,1.4
			c-0.9,0.9-1.4,2.1-1.4,3.4c0,1.3,0.5,2.5,1.4,3.4C32.4,37.7,33.6,38.2,34.8,38.2z M48.3,17.1c-0.8-0.5-1.7-1-2.5-1.4l-1.2,2.5
			c0.8,0.4,1.5,0.8,2.2,1.3L48.3,17.1z M27.4,18l-1.1-2.5c-0.9,0.4-1.7,0.9-2.5,1.4l1.4,2.3C25.9,18.8,26.6,18.3,27.4,18z
			 M43.1,14.5c-0.9-0.3-1.8-0.6-2.8-0.8l-0.5,2.7c0.8,0.2,1.7,0.4,2.5,0.7L43.1,14.5z M32.2,16.4l-0.5-2.7c-0.9,0.2-1.9,0.4-2.8,0.7
			l0.8,2.6C30.6,16.8,31.4,16.6,32.2,16.4z M37.3,16.1l0.2-2.7c-1-0.1-1.9-0.1-2.9,0l0.2,2.7C35.6,16,36.5,16.1,37.3,16.1z
			 M18.9,25.6l-2.2-1.5c-0.5,0.8-1,1.7-1.4,2.6l2.4,1.2C18,27.1,18.4,26.3,18.9,25.6z M18.7,47.9c-0.4-0.7-0.9-1.5-1.2-2.3l-2.4,1.2
			c0.4,0.9,0.9,1.8,1.4,2.6L18.7,47.9z M13.4,32.3l2.6,0.5c0.2-0.9,0.4-1.7,0.6-2.5l-2.5-0.9C13.8,30.4,13.6,31.3,13.4,32.3z
			 M16.6,43.2c-0.3-0.8-0.5-1.7-0.6-2.5l-2.6,0.5c0.2,1,0.4,1.9,0.7,2.9L16.6,43.2z M13,38.2l2.7-0.2c0-0.9,0-1.7,0-2.6L13,35.2
			C13,36.2,13,37.2,13,38.2z M23.5,56.7c0.8,0.5,1.7,1,2.5,1.4l1.2-2.5c-0.8-0.4-1.5-0.8-2.2-1.3L23.5,56.7z M44.4,55.7l1.1,2.5
			c0.9-0.4,1.7-0.9,2.5-1.4l-1.4-2.3C46,55,45.2,55.4,44.4,55.7z M28.7,59.2c0.9,0.3,1.8,0.6,2.8,0.8l0.5-2.7
			c-0.8-0.2-1.7-0.4-2.5-0.7L28.7,59.2z M39.6,57.3l0.5,2.7c0.9-0.2,1.9-0.4,2.8-0.7l-0.8-2.6C41.3,56.9,40.4,57.1,39.6,57.3z
			 M34.5,57.6l-0.2,2.7c1,0.1,1.9,0.1,2.9,0l-0.2-2.7C36.2,57.7,35.4,57.7,34.5,57.6z M53,48.1l2.3,1.5c0.5-0.8,1-1.7,1.4-2.6
			l-2.4-1.2C53.8,46.6,53.4,47.4,53,48.1z M53.1,25.8c0.5,0.7,0.9,1.5,1.2,2.3l2.4-1.2c-0.4-0.9-0.9-1.8-1.4-2.6L53.1,25.8z
			 M58.4,41.4l-2.6-0.5c-0.2,0.9-0.4,1.7-0.6,2.5l2.5,0.9C58,43.3,58.2,42.4,58.4,41.4z M55.2,30.6c0.3,0.8,0.5,1.7,0.6,2.5l2.6-0.5
			c-0.2-1-0.4-1.9-0.7-2.9L55.2,30.6z M58.8,35.5l-2.7,0.2c0.1,0.9,0,1.7,0,2.6l2.7,0.2C58.9,37.5,58.9,36.5,58.8,35.5z M21.9,24.4
			l1.9-1.9l-4.4-4.5l-1.9,1.9L21.9,24.4z M21.9,49.3l-7.7,7.9l1.9,1.9l7.7-7.9L21.9,49.3z M60,59.6l-10-10.3L48,51.2l10,10.3
			L60,59.6z M49.9,24.4l7.7-7.9l-1.9-1.9L48,22.5L49.9,24.4z M12.4,19.1c1.7,0,3.3-0.7,4.4-1.9c1.2-1.2,1.8-2.8,1.8-4.6
			S18,9.3,16.8,8.1c-1.2-1.2-2.8-1.9-4.4-1.9c-1.7,0-3.3,0.7-4.4,1.9C6.7,9.3,6.1,11,6.1,12.7s0.7,3.3,1.8,4.6
			C9.1,18.5,10.7,19.1,12.4,19.1z M9.8,10.1C10.5,9.4,11.4,9,12.4,9c1,0,1.9,0.4,2.6,1.1s1.1,1.6,1.1,2.6c0,1-0.4,1.9-1.1,2.6
			c-0.7,0.7-1.6,1.1-2.5,1.1c-1,0-1.9-0.4-2.6-1.1c-0.7-0.7-1.1-1.6-1.1-2.6C8.8,11.7,9.1,10.8,9.8,10.1z M7.9,57.4
			c-2.1,0-4.1,0.8-5.6,2.4C0.8,61.4,0,63.4,0,65.6c0,2.2,0.8,4.2,2.3,5.8c1.5,1.5,3.5,2.4,5.6,2.4c2.1,0,4.1-0.8,5.6-2.4
			c3.1-3.2,3.1-8.3,0-11.5C12,58.3,10.1,57.4,7.9,57.4z M11.7,69.4c-1,1-2.3,1.6-3.7,1.6s-2.7-0.6-3.7-1.6c-1-1-1.5-2.4-1.5-3.8
			c0-1.4,0.5-2.8,1.5-3.8c1-1,2.3-1.6,3.7-1.6c1.4,0,2.7,0.6,3.7,1.6C13.7,63.9,13.7,67.3,11.7,69.4z M63.9,16.3
			c2.1,0,4.1-0.8,5.6-2.4s2.3-3.6,2.3-5.8S71,3.9,69.5,2.4S66,0,63.9,0c-2.1,0-4.1,0.8-5.6,2.4C56.8,3.9,56,6,56,8.1
			c0,2.2,0.8,4.2,2.3,5.8C59.8,15.4,61.8,16.3,63.9,16.3z M60.2,4.3c1-1,2.3-1.6,3.7-1.6c1.4,0,2.7,0.6,3.7,1.6c1,1,1.5,2.4,1.5,3.8
			c0,1.4-0.5,2.8-1.5,3.8c-1,1-2.3,1.6-3.7,1.6c-1.4,0-2.7-0.6-3.7-1.6c-1-1-1.5-2.4-1.5-3.8C58.6,6.7,59.2,5.3,60.2,4.3z
			 M74.2,62.2c-1.8-1.9-4.2-2.9-6.8-2.9c-2.6,0-5,1-6.8,2.9c-1.8,1.9-2.8,4.3-2.8,7c0,2.6,1,5.1,2.8,7c1.8,1.9,4.2,2.9,6.8,2.9
			c0,0,0,0,0,0c2.6,0,5-1,6.8-2.9C77.9,72.3,77.9,66,74.2,62.2z M72.3,74.2c-1.3,1.3-3,2.1-4.9,2.1c-1.8,0-3.6-0.7-4.9-2.1
			c-1.3-1.3-2-3.1-2-5c0-1.9,0.7-3.7,2-5c1.3-1.3,3-2.1,4.9-2.1s3.6,0.7,4.9,2.1C75,66.9,75,71.4,72.3,74.2z"/>
	</g>
</g>
</svg>
