<?xml version="1.0" encoding="utf-8"?>
<!-- Generator: Adobe Illustrator 16.0.0, SVG Export Plug-In . SVG Version: 6.00 Build 0)  -->
<!DOCTYPE svg PUBLIC "-//W3C//DTD SVG 1.1//EN" "http://www.w3.org/Graphics/SVG/1.1/DTD/svg11.dtd">
<svg version="1.1" id="Layer_1" xmlns="http://www.w3.org/2000/svg" xmlns:xlink="http://www.w3.org/1999/xlink" x="0px" y="0px"
	 width="77px" height="79px" viewBox="0 0 77 79" enable-background="new 0 0 77 79" xml:space="preserve">
<g>
	<g>
		<path fill="#FFFFFF" d="M29.8,57.3c-0.1-0.3-0.3-0.5-0.6-0.6l-7.9-3.4l-0.6-2c2.2-2,3.5-4.8,3.3-7.8v-9.6c0-0.3-0.1-0.6-0.3-0.8
			c-2.2-1.9-5.1-2.9-8-2.7c-2.9-0.1-5.8,0.8-8,2.7c-0.2,0.2-0.3,0.5-0.3,0.8v9.6c-0.1,3,1.1,5.9,3.3,7.8l-0.6,2l-7.9,3.4
			c-0.3,0.1-0.5,0.3-0.6,0.6l-1.2,2.4C0,59.8,0,60,0,60.2v17.9h2.4V60.5l0.9-1.7l7.2-3.1l3.9,3.9v6.7h2.4v-6.7l3.9-3.9l7.2,3.1
			l0.9,1.8v17.7h2.4V60.2c0-0.2,0-0.4-0.1-0.5L29.8,57.3z M9.6,34.4c1.8-1.2,3.8-1.8,6-1.8c2.1-0.1,4.2,0.5,6,1.8v5.3
			c-0.6-0.2-1.2-0.5-1.2-1c0-0.7-0.5-1.2-1.2-1.2H12c-0.7,0-1.2,0.5-1.2,1.2c0,0.6-0.6,0.9-1.2,1V34.4z M15.5,57.3l-3.4-3.4l0.5-1.4
			c1.9,0.7,4,0.7,5.9,0l0.5,1.4L15.5,57.3z M15.5,50.6c-4.4,0-6-3.9-6-7.2v-1.3c1.4-0.1,2.7-1,3.4-2.3h5.2c0.7,1.3,1.9,2.1,3.4,2.3
			v1.3C21.5,46.8,20,50.6,15.5,50.6z M6,78.1h2.4V71H6V78.1z M22.7,78.1h2.4V71h-2.4V78.1z M75.3,37.5H27.5v2.4h37.1V47H27.5v2.4
			h47.8c0.7,0,1.2-0.5,1.2-1.2v-9.6C76.5,38,76,37.5,75.3,37.5z M74.1,47H67v-7.2h7.2V47z M75.3,53H34.7v2.4h29.9v7.2H34.7V65h40.7
			c0.7,0,1.2-0.5,1.2-1.2v-9.6C76.5,53.6,76,53,75.3,53z M74.1,62.6H67v-7.2h7.2V62.6z M34.7,69.8v2.4h2.4v-2.4H34.7z M65.8,76.9
			h2.4v-2.4h-2.4V76.9z M39.5,72.2h35.9v-2.4H39.5V72.2z M34.7,76.9h28.7v-2.4H34.7V76.9z M61,42.3H27.5v2.4H61V42.3z M34.7,57.8
			v2.4H61v-2.4H34.7z"/>
	</g>
</g>
</svg>
