<?xml version="1.0" encoding="utf-8"?>
<!-- Generator: Adobe Illustrator 16.0.0, SVG Export Plug-In . SVG Version: 6.00 Build 0)  -->
<!DOCTYPE svg PUBLIC "-//W3C//DTD SVG 1.1//EN" "http://www.w3.org/Graphics/SVG/1.1/DTD/svg11.dtd">
<svg version="1.1" id="Layer_1" xmlns="http://www.w3.org/2000/svg" xmlns:xlink="http://www.w3.org/1999/xlink" x="0px" y="0px"
	 width="77px" height="79px" viewBox="0 0 77 79" enable-background="new 0 0 77 79" xml:space="preserve">
<g>
	<g>
		<path fill="#FFFFFF" d="M70.2,31.7v-2.2H7.9v2.2H3.5v46.9h71.2V31.7H70.2z M40.2,31.8H68v39.8H40.2V31.8z M10.1,31.8h27.8v39.8
			H10.1V31.8z M72.5,76.3H5.7V33.9H8v39.9h62.2V33.9h2.3V76.3z M14.6,38.2h17.6V36H14.6V38.2z M14.6,45.9h17.6v-2.2H14.6V45.9z
			 M14.6,52.8h17.6v-2.2H14.6V52.8z M14.6,60h17.6v-2.2H14.6V60z M14.6,66.9h17.6v-2.2H14.6V66.9z M45.2,52.8h17.6v-2.2H45.2V52.8z
			 M45.2,60h17.6v-2.2H45.2V60z M45.2,66.9h17.6v-2.2H45.2V66.9z M50.1,47h13.1V33.8H50.1V47z M52.3,36h8.6v8.7h-8.6V36z"/>
	</g>
</g>
</svg>
