<?xml version="1.0" encoding="utf-8"?>
<!-- Generator: Adobe Illustrator 16.0.0, SVG Export Plug-In . SVG Version: 6.00 Build 0)  -->
<!DOCTYPE svg PUBLIC "-//W3C//DTD SVG 1.1//EN" "http://www.w3.org/Graphics/SVG/1.1/DTD/svg11.dtd">
<svg version="1.1" id="Layer_1" xmlns="http://www.w3.org/2000/svg" xmlns:xlink="http://www.w3.org/1999/xlink" x="0px" y="0px"
	 width="88px" height="68px" viewBox="0 0 88 68" enable-background="new 0 0 88 68" xml:space="preserve">
<g>
	<path fill="#FFFFFF" d="M44,0c-3.854,0-7,3.176-7,7.028c0,3.852,3.146,6.997,7,6.997c3.855,0,7-3.145,7-6.997
		C51,3.176,47.854,0,44,0 M43.5,2.03c0.169-0.017,0.327,0,0.5,0c2.774,0,5,2.226,5,4.998c0,2.772-2.227,4.966-5,4.966
		c-2.773,0-5-2.194-5-4.966C39,4.429,40.97,2.286,43.5,2.03 M25.999,5.029c-3.302,0-6,2.697-6,5.997c0,3.3,2.698,5.966,6,5.966
		c3.302,0,6.001-2.666,6.001-5.966C32,7.726,29.301,5.029,25.999,5.029 M62.001,5.029c-3.302,0-6,2.697-6,5.997
		c0,3.3,2.698,5.966,6,5.966s6-2.666,6-5.966C68.001,7.726,65.303,5.029,62.001,5.029 M25.999,6.997c2.222,0,4,1.809,4,4.029
		c0,2.22-1.778,3.998-4,3.998c-2.221,0-4-1.778-4-3.998C21.999,8.806,23.778,6.997,25.999,6.997 M62.001,6.997
		c2.222,0,4,1.809,4,4.029c0,2.22-1.778,3.998-4,3.998c-2.221,0-4-1.778-4-3.998C58.001,8.806,59.78,6.997,62.001,6.997
		 M10.998,10.026c-2.749,0-5,2.25-5,4.998s2.251,4.998,5,4.998c2.75,0,5.001-2.25,5.001-4.998S13.748,10.026,10.998,10.026
		 M77.002,10.026c-2.75,0-5,2.25-5,4.998s2.25,4.998,5,4.998s5-2.25,5-4.998S79.752,10.026,77.002,10.026 M10.998,12.025
		c1.669,0,3,1.331,3,2.999s-1.331,2.999-3,2.999s-3-1.331-3-2.999S9.329,12.025,10.998,12.025 M77.002,12.025
		c1.669,0,3,1.331,3,2.999s-1.331,2.999-3,2.999s-3-1.331-3-2.999S75.333,12.025,77.002,12.025 M33.812,18.023
		c-0.374,0.073-0.693,0.378-0.781,0.749l-0.562,2.249H17.811c-0.374,0.074-0.693,0.379-0.781,0.75l-0.531,2.249H4.123
		c-0.363,0.084-0.666,0.387-0.75,0.749L0.029,38.232c-0.082,0.328,0.016,0.693,0.25,0.937l3.094,3.124l1.625,14.806
		c0.046,0.491,0.506,0.908,1,0.906h10.001c0.493,0,0.953-0.415,1-0.906l0.75-6.841l1.25,11.839c0.046,0.491,0.506,0.907,1,0.905H32
		c0.493,0,0.953-0.414,1-0.905l0.969-8.965L35.5,67.094c0.046,0.492,0.506,0.908,1,0.906h15c0.494,0,0.954-0.415,1.001-0.906
		l1.531-13.962l0.969,8.965c0.046,0.491,0.506,0.907,1,0.905h12c0.494,0,0.954-0.414,1.001-0.905l1.25-11.839l0.75,6.841
		c0.046,0.491,0.506,0.908,1,0.906h10c0.494,0,0.954-0.415,1-0.906l1.625-14.806l3.095-3.124c0.234-0.243,0.332-0.608,0.25-0.937
		l-3.345-13.463c-0.109-0.425-0.528-0.749-0.968-0.749H71.502l-0.531-2.249c-0.11-0.425-0.529-0.75-0.969-0.75h-14.47l-0.563-2.249
		c-0.11-0.425-0.529-0.75-0.969-0.749H33.812z M34.781,20.022H53.22l4.688,18.866l-4.625,4.687
		c-0.157,0.158-0.258,0.371-0.281,0.593l-2.407,21.834H37.406L35,44.167c-0.024-0.222-0.125-0.435-0.281-0.593l-4.626-4.687
		L34.781,20.022z M18.78,23.02h13.189l-3.938,15.962c-0.082,0.327,0.015,0.693,0.25,0.937l4.563,4.623l-1.751,16.461H20.905
		l-1.906-18.054c-0.024-0.222-0.125-0.435-0.281-0.594l-3.625-3.811L18.78,23.02z M56.032,23.02h13.188l3.687,15.524l-3.625,3.812
		c-0.156,0.159-0.257,0.372-0.28,0.594l-1.907,18.054H56.907l-1.75-16.461l4.563-4.623c0.234-0.243,0.332-0.609,0.25-0.937
		L56.032,23.02z M5.123,26.019H16.03l-3,12.588c-0.082,0.328,0.015,0.693,0.25,0.937l3.281,3.437l-1.468,13.025H6.905L5.31,41.731
		c-0.024-0.223-0.124-0.436-0.281-0.595L2.092,38.17L5.123,26.019z M71.971,26.019h10.906l3.032,12.151l-2.938,2.967
		c-0.156,0.159-0.257,0.372-0.281,0.595l-1.594,14.274h-8.188L71.439,42.98l3.281-3.437c0.234-0.243,0.332-0.608,0.25-0.937
		L71.971,26.019z"/>
</g>
</svg>
